<?xml version="1.0" encoding="UTF-8"?>
<svg version="1.1" xmlns="http://www.w3.org/2000/svg" width="512" height="512">
<path d="M0 0 C0 0.66 0 1.32 0 2 C0.54164795 2.16072998 1.0832959 2.32145996 1.64135742 2.48706055 C7.57738143 4.34393798 12.88390944 6.79327684 18.3125 9.8125 C19.1669873 10.28534424 20.02147461 10.75818848 20.90185547 11.24536133 C37.4080146 20.58718993 52.66635011 32.08094429 66.64453125 44.8671875 C68.66311204 46.69495717 70.72228353 48.44346194 72.8125 50.1875 C99.317549 73.44594661 119.66476761 106.22728802 132 139 C132.33628418 139.89106445 132.67256836 140.78212891 133.01904297 141.70019531 C155.54258679 202.53174861 153.0056062 270.34887177 126.5625 329.5625 C114.4165251 355.85231713 98.04485249 379.15787131 78 400 C77.29593018 400.73694092 77.29593018 400.73694092 76.57763672 401.48876953 C70.12163084 408.21613117 63.33655905 414.25486372 56 420 C55.00355469 420.80179687 54.00710938 421.60359375 52.98046875 422.4296875 C44.73866233 428.9982003 36.05185452 434.61741704 27 440 C26.32936523 440.40718262 25.65873047 440.81436523 24.96777344 441.23388672 C7.62064457 451.71115358 -11.28491276 459.37715128 -30.75 464.9375 C-31.64468994 465.1955542 -32.53937988 465.4536084 -33.46118164 465.71948242 C-36.62559325 466.56999291 -39.7990271 467.29824825 -43 468 C-43.74773682 468.16904846 -44.49547363 468.33809692 -45.26586914 468.51226807 C-61.41113735 472.06493832 -77.35852292 472.63001256 -93.81542969 472.52148438 C-97.30119802 472.49869493 -100.7857443 472.5122589 -104.27147102 472.5352478 C-120.85636768 472.62795328 -136.76917061 471.65673773 -153 468 C-154.80645996 467.60844727 -154.80645996 467.60844727 -156.64941406 467.20898438 C-159.50169794 466.54506706 -162.31009795 465.80670506 -165.125 465 C-166.63815796 464.56941284 -166.63815796 464.56941284 -168.18188477 464.13012695 C-192.75692411 456.81209322 -216.02469994 445.73864417 -237 431 C-238.16392018 430.1990119 -239.32798967 429.39824074 -240.4921875 428.59765625 C-247.80925426 423.51827581 -254.47849405 418.08443853 -261 412 C-262.26699298 410.91217774 -263.53770696 409.82867103 -264.8125 408.75 C-274.42643204 400.34267481 -283.23532808 391.14022714 -291 381 C-291.41958984 380.45682129 -291.83917969 379.91364258 -292.27148438 379.35400391 C-299.95291742 369.35973062 -306.6614321 358.88862907 -313 348 C-313.3619043 347.38753418 -313.72380859 346.77506836 -314.09667969 346.14404297 C-329.03793923 320.64381675 -337.79335462 291.11744498 -342 262 C-342.11714355 261.19739746 -342.23428711 260.39479492 -342.35498047 259.56787109 C-348.88231839 212.51866415 -340.82491266 163.59393644 -320 121 C-319.59942383 120.17435547 -319.19884766 119.34871094 -318.78613281 118.49804688 C-308.61237826 97.74638556 -295.81193501 79.51833696 -280.24609375 62.46875 C-278.74297401 60.81662535 -277.25597974 59.14969113 -275.78515625 57.46875 C-257.95117842 37.15870143 -234.51959824 21.04904599 -210.9375 8.125 C-210.01582031 7.61912354 -209.09414062 7.11324707 -208.14453125 6.59204102 C-201.63932279 3.12037146 -201.63932279 3.12037146 -198.27954102 2.48779297 C-197.52729248 2.32682129 -196.77504395 2.16584961 -196 2 C-195.67 1.34 -195.34 0.68 -195 0 C-138.78914395 -28.9984977 -56.20392084 -28.10196042 0 0 Z " fill="#49AA4D" transform="translate(354,40)"/>
<path d="M0 0 C4.92991965 2.5936908 8.68220235 6.19664616 12.6875 10 C13.40010986 10.67498535 14.11271973 11.3499707 14.84692383 12.04541016 C40.39366676 36.44212962 60.55586916 66.9379625 73 100 C73.33628418 100.89106445 73.67256836 101.78212891 74.01904297 102.70019531 C96.54258679 163.53174861 94.0056062 231.34887177 67.5625 290.5625 C55.4165251 316.85231713 39.04485249 340.15787131 19 361 C18.29593018 361.73694092 18.29593018 361.73694092 17.57763672 362.48876953 C11.12163084 369.21613117 4.33655905 375.25486372 -3 381 C-3.99644531 381.80179687 -4.99289062 382.60359375 -6.01953125 383.4296875 C-14.26133767 389.9982003 -22.94814548 395.61741704 -32 401 C-32.67063477 401.40718262 -33.34126953 401.81436523 -34.03222656 402.23388672 C-51.37935543 412.71115358 -70.28491276 420.37715128 -89.75 425.9375 C-90.64468994 426.1955542 -91.53937988 426.4536084 -92.46118164 426.71948242 C-95.62559325 427.56999291 -98.7990271 428.29824825 -102 429 C-102.74773682 429.16904846 -103.49547363 429.33809692 -104.26586914 429.51226807 C-120.41113735 433.06493832 -136.35852292 433.63001256 -152.81542969 433.52148438 C-156.30119802 433.49869493 -159.7857443 433.5122589 -163.27147102 433.5352478 C-179.85636768 433.62795328 -195.76917061 432.65673773 -212 429 C-213.80645996 428.60844727 -213.80645996 428.60844727 -215.64941406 428.20898438 C-218.50169794 427.54506706 -221.31009795 426.80670506 -224.125 426 C-225.63815796 425.56941284 -225.63815796 425.56941284 -227.18188477 425.13012695 C-251.75692411 417.81209322 -275.02469994 406.73864417 -296 392 C-297.16392018 391.1990119 -298.32798967 390.39824074 -299.4921875 389.59765625 C-306.80925426 384.51827581 -313.47849405 379.08443853 -320 373 C-321.26699298 371.91217774 -322.53770696 370.82867103 -323.8125 369.75 C-333.42643204 361.34267481 -342.23532808 352.14022714 -350 342 C-350.41958984 341.45682129 -350.83917969 340.91364258 -351.27148438 340.35400391 C-358.95291742 330.35973062 -365.6614321 319.88862907 -372 309 C-372.3619043 308.38753418 -372.72380859 307.77506836 -373.09667969 307.14404297 C-388.03793923 281.64381675 -396.79335462 252.11744498 -401 223 C-401.11714355 222.19739746 -401.23428711 221.39479492 -401.35498047 220.56787109 C-407.88231839 173.51866415 -399.82491266 124.59393644 -379 82 C-378.59942383 81.17435547 -378.19884766 80.34871094 -377.78613281 79.49804688 C-367.61237826 58.74638556 -354.81193501 40.51833696 -339.24609375 23.46875 C-337.74297401 21.81662535 -336.25597974 20.14969113 -334.78515625 18.46875 C-329.55939419 12.51744277 -323.99104067 7.1780602 -318 2 C-317.01 2.495 -317.01 2.495 -316 3 C-316.52319824 3.50748779 -317.04639648 4.01497559 -317.58544922 4.5378418 C-327.50910246 14.20275953 -336.98564679 23.66541475 -345 35 C-345.83076172 36.11650142 -346.66417885 37.23103105 -347.5 38.34375 C-353.3316475 46.18447118 -358.26904243 54.3416641 -362.88671875 62.94677734 C-363.9926706 64.98648241 -365.13285596 67.00347261 -366.28125 69.01953125 C-376.61486362 87.42669434 -382.67473311 107.41433125 -387 128 C-387.21172852 128.9890332 -387.42345703 129.97806641 -387.64160156 130.99707031 C-393.83534654 161.25906042 -393.47434155 194.83044925 -387 225 C-386.67056396 226.55388428 -386.67056396 226.55388428 -386.33447266 228.13916016 C-382.19829488 247.09298259 -376.12798779 264.86867449 -367.04150391 282.00976562 C-365.97955518 284.0390685 -364.96155063 286.08617265 -363.94921875 288.140625 C-358.38765628 299.26246344 -351.54472507 309.13497755 -344 319 C-343.24332031 319.99128906 -342.48664063 320.98257812 -341.70703125 322.00390625 C-337.07400243 327.91309869 -332.14274611 333.53073033 -327 339 C-326.45907715 339.58023926 -325.9181543 340.16047852 -325.36083984 340.75830078 C-314.87594707 351.91945338 -303.53248288 361.22213347 -291 370 C-290.37947754 370.43892578 -289.75895508 370.87785156 -289.11962891 371.33007812 C-240.22861357 405.54956075 -176.65657867 418.30194146 -118.04199219 408.55224609 C-104.83645668 406.15490088 -91.76162308 403.11475263 -79 398.9375 C-78.32525635 398.71666748 -77.6505127 398.49583496 -76.95532227 398.26831055 C-72.29608615 396.65162717 -67.97088681 394.54990969 -63.58398438 392.30493164 C-61.05271632 391.02662214 -58.49916146 389.82303688 -55.921875 388.640625 C-45.38223822 383.7867124 -35.48551751 378.72887374 -26 372 C-25.26539551 371.48421387 -24.53079102 370.96842773 -23.77392578 370.43701172 C-13.80342322 363.39769462 -4.29939303 356.10997579 4.41552734 347.55371094 C6.10321278 345.89879104 7.81107259 344.26626111 9.51953125 342.6328125 C16.89474205 335.50540718 23.548559 328.08760329 29.63916016 319.83496094 C31.02300411 317.96898118 32.43857213 316.13002185 33.85546875 314.2890625 C43.25660239 301.80003366 50.16146807 287.99938096 57 274 C57.3909082 273.20674316 57.78181641 272.41348633 58.18457031 271.59619141 C70.50912171 246.27429909 76.97313308 216.67105535 77.23828125 188.56640625 C77.2480751 187.69908875 77.25786896 186.83177124 77.26795959 185.93817139 C77.44421337 166.27364573 77.13434798 147.3125022 73 128 C72.78569336 126.9800293 72.57138672 125.96005859 72.35058594 124.90917969 C62.61158033 79.84324252 39.87126751 41.03465282 7.5625 8.4375 C6.78108643 7.64883545 6.78108643 7.64883545 5.98388672 6.84423828 C3.25152008 4.07831233 3.25152008 4.07831233 0 2 C0 1.34 0 0.68 0 0 Z " fill="#000000" transform="translate(413,79)"/>
<path d="M0 0 C3.83378636 1.81233537 5.53351018 3.30026527 7.875 6.8125 C9.19527938 10.55329157 9.49277138 13.05782897 9 17 C6.35240837 21.73414598 3.26637695 24.61344769 -1.1875 27.5625 C-2.44335046 28.42556319 -3.69716628 29.29159247 -4.94921875 30.16015625 C-5.93801025 30.84489014 -5.93801025 30.84489014 -6.94677734 31.54345703 C-10.54201571 34.09389605 -14.01486731 36.80211308 -17.5 39.5 C-23.24118159 43.92900372 -29.05059739 48.22443956 -34.97485352 52.40454102 C-38.86698136 55.16148818 -42.67078826 58.01184855 -46.4375 60.9375 C-52.17175966 65.39062773 -57.99942293 69.7013585 -63.8671875 73.9765625 C-66.94886647 76.22371491 -70.01239211 78.49406387 -73.0703125 80.7734375 C-73.92995605 81.41249023 -74.78959961 82.05154297 -75.67529297 82.70996094 C-77.36668019 83.96799634 -79.05588151 85.22897701 -80.74267578 86.49316406 C-81.89872314 87.35119629 -81.89872314 87.35119629 -83.078125 88.2265625 C-84.10534668 88.99347412 -84.10534668 88.99347412 -85.15332031 89.77587891 C-87 91 -87 91 -90 92 C-90 92.66 -90 93.32 -90 94 C-96.6887194 93.42289691 -102.55411374 91.15104796 -108.8125 88.8125 C-111.07753755 87.98147003 -113.34316549 87.15204745 -115.609375 86.32421875 C-116.71087891 85.92122559 -117.81238281 85.51823242 -118.94726562 85.10302734 C-122.79863846 83.71143246 -126.67096292 82.39911947 -130.5625 81.125 C-138.50895362 78.51234996 -146.42929873 75.82513685 -154.34249878 73.1137085 C-155.76137128 72.62789965 -157.18057241 72.14304939 -158.60012817 71.65924072 C-160.61973033 70.97071889 -162.63827149 70.27920265 -164.65625 69.5859375 C-165.61754066 69.25669785 -165.61754066 69.25669785 -166.59825134 68.92080688 C-171.14845049 67.34400849 -175.57720995 65.56674399 -179.96679688 63.58837891 C-182.41631104 62.87952574 -183.63227803 63.1074524 -186 64 C-187.92276258 65.35113046 -189.79087188 66.78080176 -191.625 68.25 C-196.98217587 72.48229324 -202.44717218 76.52817753 -208 80.5 C-213.2344358 84.25274485 -218.41589493 88.04569606 -223.5 92 C-228.50255932 95.89018118 -233.59881734 99.62175773 -238.75 103.3125 C-244.80635831 107.65392502 -250.78331056 112.07873352 -256.6875 116.625 C-262.13437481 120.81529229 -267.59789374 124.97836302 -273.125 129.0625 C-273.71627686 129.50352051 -274.30755371 129.94454102 -274.91674805 130.39892578 C-286.70310114 139.06136711 -286.70310114 139.06136711 -294 138 C-298.33833918 135.74740081 -301.20287362 133.5926563 -303 129 C-303.78340428 123.8034183 -303.99193242 120.40737276 -300.8828125 115.99609375 C-298.06106584 112.86830839 -294.81404676 110.40871758 -291.375 108 C-290.0361124 107.03954455 -288.69758829 106.07858225 -287.359375 105.1171875 C-286.29879883 104.36066895 -286.29879883 104.36066895 -285.21679688 103.58886719 C-281.3279387 100.80156664 -277.47690619 97.96304024 -273.625 95.125 C-272.82537842 94.53686523 -272.02575684 93.94873047 -271.2019043 93.34277344 C-265.09736394 88.84074408 -259.07219075 84.24186364 -253.06298828 79.61376953 C-248.21971873 75.89700019 -243.29470586 72.32224082 -238.30517578 68.80541992 C-232.89727804 64.97309387 -227.65142302 60.94039186 -222.39990234 56.89770508 C-216.4809817 52.34814706 -210.49542299 47.90071166 -204.4453125 43.52734375 C-202.20683998 41.90417121 -200.0216108 40.2369315 -197.8671875 38.50390625 C-196.92101562 37.76011719 -195.97484375 37.01632813 -195 36.25 C-194.195625 35.59515625 -193.39125 34.9403125 -192.5625 34.265625 C-186.86384003 31.45104294 -180.32451465 34.73581279 -174.66674805 36.62670898 C-173.64234619 36.97677002 -172.61794434 37.32683105 -171.5625 37.6875 C-170.48846924 38.04980713 -169.41443848 38.41211426 -168.30786133 38.78540039 C-161.94351405 40.94760678 -155.63974397 43.21866001 -149.36938477 45.6394043 C-141.65753138 48.57804697 -133.79778623 51.08765434 -125.95922852 53.66357422 C-118.21990333 56.21955162 -110.60078671 58.96438965 -103.0390625 62.00390625 C-100.01517241 62.99502704 -98.1414233 63.27412228 -95 63 C-92.98588142 61.97455217 -92.98588142 61.97455217 -91.1796875 60.4375 C-90.13832642 59.61946899 -90.13832642 59.61946899 -89.07592773 58.78491211 C-88.34962158 58.19589111 -87.62331543 57.60687012 -86.875 57 C-85.34319783 55.7920172 -83.81064701 54.58498313 -82.27734375 53.37890625 C-81.16915283 52.49936279 -81.16915283 52.49936279 -80.03857422 51.60205078 C-77.55104687 49.64718198 -75.00862711 47.78072811 -72.4375 45.9375 C-68.08449241 42.80202536 -63.78593583 39.60106299 -59.5 36.375 C-52.63557551 31.20993611 -45.72888888 26.10441843 -38.80688477 21.0168457 C-34.33034928 17.72450601 -29.87272413 14.41026866 -25.4375 11.0625 C-24.51066406 10.37414062 -23.58382813 9.68578125 -22.62890625 8.9765625 C-20.86265996 7.64859724 -19.12030322 6.28830546 -17.40234375 4.8984375 C-11.69310725 0.46870532 -7.26599724 -1.56865225 0 0 Z " fill="#F9FAF9" transform="translate(398,217)"/>
<path d="M0 0 C1.25139771 -0.00960754 2.50279541 -0.01921509 3.79211426 -0.02911377 C5.15893369 -0.03396065 6.52575525 -0.03823975 7.89257812 -0.04199219 C9.29357912 -0.04774504 10.6945801 -0.05350276 12.09558105 -0.05926514 C15.03100959 -0.06976341 17.96641081 -0.07561429 20.90185547 -0.07910156 C24.66483827 -0.08459541 28.42746089 -0.10864687 32.19033051 -0.13707352 C35.08307966 -0.15568383 37.97574157 -0.16090454 40.86854553 -0.16243744 C42.25604734 -0.16546625 43.64354752 -0.17350255 45.0309906 -0.18662262 C46.96980651 -0.20365362 48.90877111 -0.19996233 50.84765625 -0.1953125 C51.95113403 -0.19895813 53.05461182 -0.20260376 54.19152832 -0.20635986 C56.92382812 0.16113281 56.92382812 0.16113281 58.77139282 1.16616821 C60.63665328 4.39509445 60.40939127 7.80413845 60.43896484 11.43701172 C60.45707214 12.28130737 60.47517944 13.12560303 60.49383545 13.9954834 C60.54791224 16.79291839 60.57804975 19.58986078 60.60351562 22.38769531 C60.61998327 23.82301668 60.61998327 23.82301668 60.6367836 25.28733444 C60.69350313 30.35512672 60.73132656 35.42267018 60.75439453 40.49072266 C60.78196434 45.71398488 60.87470723 50.9339321 60.98270988 56.15606117 C61.05382349 60.18145648 61.07559289 64.20606751 61.08429337 68.23203659 C61.09702288 70.15624446 61.12819586 72.08042597 61.17855453 74.00401688 C61.54611533 89.01770725 61.54611533 89.01770725 57.57086182 94.2699585 C54.79065947 96.57591197 52.05725916 98.3765428 48.92382812 100.16113281 C47.24421853 101.3725535 45.57547351 102.59935462 43.92382812 103.84863281 C42.50122202 104.86941865 41.07859855 105.89018032 39.65576172 106.91064453 C35.9973873 109.55205893 32.36873411 112.23418553 28.73632812 114.91113281 C27.92035156 115.51223877 27.104375 116.11334473 26.26367188 116.73266602 C20.96445668 120.64177754 15.68688235 124.57850934 10.42382812 128.53613281 C7.92475505 130.41237141 5.42465431 132.28723172 2.92382812 134.16113281 C2.35567383 134.58749023 1.78751953 135.01384766 1.20214844 135.453125 C-0.34506742 136.61101176 -1.89793567 137.76133459 -3.45117188 138.91113281 C-4.30453125 139.54535156 -5.15789062 140.17957031 -6.03710938 140.83300781 C-8.07617188 142.16113281 -8.07617188 142.16113281 -10.07617188 142.16113281 C-10.09950784 124.07232738 -10.11715449 105.98352585 -10.12798405 87.89470863 C-10.13314552 79.49620689 -10.14018539 71.0977145 -10.15161133 62.69921875 C-10.1615627 55.3811093 -10.16802639 48.0630066 -10.17026037 40.74489057 C-10.1715667 36.86819394 -10.1746477 32.99151665 -10.18190193 29.1148262 C-10.18866928 25.4689265 -10.19078737 21.8230542 -10.18927956 18.17714882 C-10.18968755 16.19512712 -10.19507905 14.21310843 -10.20059204 12.23109436 C-10.19921738 11.05877762 -10.19784271 9.88646088 -10.19642639 8.67861938 C-10.19734818 7.65542917 -10.19826998 6.63223896 -10.1992197 5.57804298 C-10.07617188 3.16113281 -10.07617188 3.16113281 -9.07617188 1.16113281 C-5.82379986 0.07700881 -3.4227314 0.02117888 0 0 Z " fill="#2C652F" transform="translate(123.076171875,177.8388671875)"/>
<path d="M0 0 C1.62716446 -0.01913956 1.62716446 -0.01913956 3.28720093 -0.03866577 C4.45908966 -0.04089142 5.63097839 -0.04311707 6.83837891 -0.04541016 C8.04305817 -0.05206696 9.24773743 -0.05872375 10.48892212 -0.06558228 C13.03931143 -0.0757154 15.5897273 -0.08039909 18.14013672 -0.08007812 C22.04259973 -0.08444764 25.94392886 -0.12075274 29.84619141 -0.15869141 C32.32275003 -0.16456008 34.79931404 -0.16852913 37.27587891 -0.17041016 C39.02763931 -0.19196671 39.02763931 -0.19196671 40.81478882 -0.21395874 C41.90586945 -0.20780548 42.99695007 -0.20165222 44.12109375 -0.1953125 C45.07801117 -0.19816254 46.03492859 -0.20101257 47.02084351 -0.20394897 C50.58717559 0.45674869 52.21799306 1.65406918 54.68994141 4.29052734 C55.32485962 7.02246094 55.32485962 7.02246094 55.33691406 10.18896484 C55.35267487 11.37699707 55.36843567 12.5650293 55.38467407 13.7890625 C55.37455292 15.0682959 55.36443176 16.3475293 55.35400391 17.66552734 C55.35878754 18.98214355 55.36357117 20.29875977 55.36849976 21.65527344 C55.37586324 24.43958929 55.3651847 27.22310192 55.34179688 30.00732422 C55.31330674 33.57225471 55.3297139 37.13530333 55.35965919 40.70016479 C55.38209589 44.10543563 55.36637639 47.51020306 55.35400391 50.91552734 C55.36918564 52.83437744 55.36918564 52.83437744 55.38467407 54.79199219 C55.36891327 55.98002441 55.35315247 57.16805664 55.33691406 58.39208984 C55.33094711 59.95950928 55.33094711 59.95950928 55.32485962 61.55859375 C54.68994141 64.29052734 54.68994141 64.29052734 52.5309906 66.62583923 C49.25109438 68.54766595 47.36548784 68.80188453 43.58618164 68.82397461 C42.37820419 68.83981094 41.17022675 68.85564728 39.92564392 68.8719635 C38.62969803 68.86700363 37.33375214 68.86204376 35.99853516 68.85693359 C34.64762443 68.86217194 33.29671737 68.8684492 31.94581604 68.87571716 C29.12052137 68.88610501 26.29573091 68.8815824 23.47045898 68.86694336 C19.8529332 68.8497316 16.23699225 68.87328518 12.61964321 68.90843296 C9.83227553 68.93040675 7.04528743 68.9289663 4.25786018 68.92066765 C2.27696208 68.91945105 0.2960875 68.93937701 -1.68470764 68.95960999 C-2.88953293 68.94707687 -4.09435822 68.93454376 -5.33569336 68.92163086 C-6.39538834 68.9206691 -7.45508331 68.91970734 -8.54689026 68.91871643 C-11.31005859 68.29052734 -11.31005859 68.29052734 -13.65309143 66.06747437 C-15.42175616 63.10333099 -15.80719482 61.63317288 -15.79589844 58.22827148 C-15.8020517 57.24697769 -15.80820496 56.2656839 -15.81454468 55.25465393 C-15.80017365 54.20559372 -15.78580261 53.15653351 -15.77099609 52.07568359 C-15.77007965 50.98718613 -15.76916321 49.89868866 -15.76821899 48.77720642 C-15.76218482 46.47829827 -15.74644447 44.17939791 -15.72167969 41.88061523 C-15.68522618 38.36916999 -15.68066014 34.85878251 -15.68115234 31.34716797 C-15.67131859 29.11083076 -15.65966047 26.87450068 -15.64599609 24.63818359 C-15.64377045 23.59114761 -15.6415448 22.54411163 -15.63925171 21.46534729 C-15.55389189 14.87960458 -15.42134171 9.67248778 -10.87255859 4.54052734 C-7.04404495 1.17890561 -5.03184144 0.04015458 0 0 Z " fill="#295E2B" transform="translate(346.31005859375,284.70947265625)"/>
<path d="M0 0 C5.03553804 0.66547638 9.61354947 1.70874467 14.390625 3.40625 C15.08529877 3.64707809 15.77997253 3.88790619 16.49569702 4.1360321 C18.74914498 4.91836764 20.99952199 5.7091665 23.25 6.5 C26.38711713 7.59244997 29.52565078 8.680807 32.6640625 9.76953125 C33.84136429 10.17900749 33.84136429 10.17900749 35.04244995 10.59675598 C43.69241077 13.60021926 52.38446412 16.47268431 61.08691406 19.3203125 C62.64104004 19.83271484 62.64104004 19.83271484 64.2265625 20.35546875 C65.58128662 20.79862427 65.58128662 20.79862427 66.96337891 21.25073242 C69 22 69 22 70 23 C70.11345662 24.36489083 70.15950227 25.73549402 70.17700195 27.10498047 C70.19625481 28.41171219 70.19625481 28.41171219 70.21589661 29.74484253 C70.22328354 30.69271637 70.23067047 31.64059021 70.23828125 32.6171875 C70.246353 33.58528351 70.25442474 34.55337952 70.26274109 35.55081177 C70.27659884 37.60368041 70.28731339 39.65657226 70.29516602 41.70947266 C70.31239012 44.85493424 70.35626241 47.99934818 70.40039062 51.14453125 C70.41051597 53.13540891 70.41903257 55.12629553 70.42578125 57.1171875 C70.44328934 58.06101288 70.46079742 59.00483826 70.47883606 59.9772644 C70.47591049 60.85472321 70.47298492 61.73218201 70.4699707 62.63623047 C70.47583694 63.4082077 70.48170319 64.18018494 70.48774719 64.97555542 C70 67 70 67 68.36421204 68.74946594 C65.31489815 70.36238001 63.14908468 70.37424779 59.70263672 70.37231445 C57.79078079 70.38165764 57.79078079 70.38165764 55.84030151 70.39118958 C54.45342618 70.38250308 53.06655467 70.37318527 51.6796875 70.36328125 C50.25529989 70.36276247 48.83091156 70.36328085 47.40652466 70.36479187 C44.42569247 70.36470227 41.44513141 70.35429479 38.46435547 70.33618164 C34.63969028 70.31345339 30.81541969 70.31295896 26.99070549 70.31969929 C24.05165078 70.32303637 21.11268642 70.31641484 18.17364883 70.30657005 C16.76301674 70.30271634 15.3523746 70.30157055 13.94173813 70.3031559 C11.97399393 70.30352576 10.00626288 70.28944692 8.03857422 70.2746582 C6.91812714 70.27005081 5.79768005 70.26544342 4.64328003 70.26069641 C2 70 2 70 0 68 C-0.24050903 65.177948 -0.24050903 65.177948 -0.22705078 61.53076172 C-0.22734283 60.86722687 -0.22763489 60.20369202 -0.22793579 59.52005005 C-0.22654056 57.32313028 -0.21097067 55.12654814 -0.1953125 52.9296875 C-0.19158305 51.40797104 -0.18873576 49.88625219 -0.18673706 48.36453247 C-0.17909523 44.35643908 -0.15944213 40.3484903 -0.1373291 36.3404541 C-0.11688244 32.25172888 -0.10773788 28.16298034 -0.09765625 24.07421875 C-0.07619667 16.04941276 -0.04205421 8.02472436 0 0 Z " fill="#275929" transform="translate(222,283)"/>
<path d="M0 0 C1.27472168 -0.00630432 2.54944336 -0.01260864 3.86279297 -0.019104 C5.26009254 -0.01552433 6.65739087 -0.01142239 8.0546875 -0.00683594 C9.48193427 -0.00818265 10.90918059 -0.01012323 12.33642578 -0.01263428 C15.32914595 -0.01558528 18.32174681 -0.01128876 21.31445312 -0.00195312 C25.15485123 0.00944151 28.99496982 0.00288189 32.83535767 -0.00909805 C35.7829805 -0.01631737 38.73053681 -0.01402842 41.67816162 -0.00884247 C43.09438103 -0.00750616 44.51060644 -0.00915303 45.92681885 -0.01380157 C47.90433643 -0.01886768 49.88187512 -0.00978001 51.859375 0 C53.54909424 0.00238678 53.54909424 0.00238678 55.27294922 0.00482178 C57.9296875 0.25878906 57.9296875 0.25878906 59.9296875 2.25878906 C60.17019653 4.66323853 60.17019653 4.66323853 60.15673828 7.71826172 C60.15658722 8.85929352 60.15643616 10.00032532 60.15628052 11.17593384 C60.14595795 12.41241669 60.13563538 13.64889954 60.125 14.92285156 C60.1221701 16.18519623 60.11934021 17.44754089 60.11642456 18.74813843 C60.10710881 22.1052585 60.08913585 25.46210818 60.0670166 28.81915283 C60.046563 32.24432028 60.0374239 35.66951565 60.02734375 39.09472656 C60.00525208 45.81615577 59.97175127 52.5374568 59.9296875 59.25878906 C52.67911911 58.2010132 45.84101284 56.85436608 38.9375 54.39550781 C38.14423309 54.12164749 37.35096619 53.84778717 36.53366089 53.56562805 C34.03745812 52.70144222 31.54611159 51.82414309 29.0546875 50.94628906 C27.39743628 50.37055252 25.73988539 49.79567782 24.08203125 49.22167969 C14.67759537 45.95806698 5.29808506 42.62433086 -4.0703125 39.25878906 C-4.0703125 38.59878906 -4.0703125 37.93878906 -4.0703125 37.25878906 C-5.3903125 36.92878906 -6.7103125 36.59878906 -8.0703125 36.25878906 C-8.11968133 31.45330309 -8.15601693 26.64796412 -8.18017578 21.84228516 C-8.19024504 20.20684234 -8.20390131 18.57141757 -8.22119141 16.93603516 C-8.24539955 14.58784536 -8.25678607 12.23989319 -8.265625 9.89160156 C-8.28110886 8.79152267 -8.28110886 8.79152267 -8.29690552 7.66921997 C-8.29730618 5.86416209 -8.19244005 4.05971076 -8.0703125 2.25878906 C-5.33569491 -0.47582853 -3.82746577 0.00540641 0 0 Z " fill="#2C652F" transform="translate(231.0703125,216.7412109375)"/>
<path d="M0 0 C0 15.51 0 31.02 0 47 C-0.66 47 -1.32 47 -2 47 C-2 47.66 -2 48.32 -2 49 C-23.45 49 -44.9 49 -67 49 C-63.70558697 44.88198371 -60.9746136 42.30660036 -56.75 39.4375 C-55.48705648 38.55774521 -54.22538569 37.67616116 -52.96484375 36.79296875 C-52.31112793 36.33583496 -51.65741211 35.87870117 -50.98388672 35.40771484 C-47.71180522 33.08593021 -44.51317087 30.66880928 -41.3125 28.25 C-33.71144666 22.51954393 -26.06160239 16.85771615 -18.38671875 11.2265625 C-15.73152527 9.27839346 -13.08638377 7.31882802 -10.45703125 5.3359375 C-9.48121094 4.60632813 -8.50539062 3.87671875 -7.5 3.125 C-6.6853125 2.50882812 -5.870625 1.89265625 -5.03125 1.2578125 C-3 0 -3 0 0 0 Z " fill="#28572A" transform="translate(183,304)"/>
<path d="M0 0 C5.0970544 4.08126116 9.3186069 8.45536943 13.375 13.5625 C13.93735352 14.26503906 14.49970703 14.96757813 15.07910156 15.69140625 C23.40246329 26.1871131 30.50297475 37.15759779 36.87060547 48.93066406 C37.98637946 50.97504374 39.13256251 52.9996344 40.28515625 55.0234375 C50.61309101 73.43256698 56.67484404 93.41485921 61 114 C61.21172852 114.9890332 61.42345703 115.97806641 61.64160156 116.99707031 C67.43562783 145.30607661 67.84939888 177.66841349 62 206 C61.83371094 206.86641113 61.66742188 207.73282227 61.49609375 208.62548828 C57.64128641 228.52414655 51.82261467 248.13812872 42.0859375 265.97802734 C40.89160005 268.20183641 39.75623229 270.45049652 38.625 272.70703125 C33.84427366 282.16766846 28.68766375 290.94742601 22.24560547 299.36914062 C20.99213132 301.01030239 19.7623279 302.66723263 18.53515625 304.328125 C12.82327361 311.99070999 6.61198745 319.10134768 0 326 C-0.82927002 326.87809326 -0.82927002 326.87809326 -1.67529297 327.77392578 C-11.02806072 337.64095291 -20.99035327 346.04093678 -32 354 C-33.37091797 355.01320313 -33.37091797 355.01320313 -34.76953125 356.046875 C-45.32027347 363.67560404 -56.54980699 369.95663948 -68.25 375.625 C-69.1675708 376.07528564 -70.0851416 376.52557129 -71.03051758 376.98950195 C-71.89185303 377.39773193 -72.75318848 377.80596191 -73.640625 378.2265625 C-74.40922852 378.59346191 -75.17783203 378.96036133 -75.96972656 379.33837891 C-78 380 -78 380 -81 379 C-78 377 -78 377 -75 377 C-74.67 376.01 -74.34 375.02 -74 374 C-71.53572937 372.60921429 -69.12057526 371.3786011 -66.5625 370.1875 C-65.08457915 369.47285444 -63.60800933 368.75540803 -62.1328125 368.03515625 C-61.05821777 367.51139404 -61.05821777 367.51139404 -59.96191406 366.97705078 C-55.80851622 364.90862144 -51.89913921 362.50784216 -48 360 C-47.45553223 359.65243652 -46.91106445 359.30487305 -46.35009766 358.94677734 C-31.72492448 349.56840985 -18.55457916 338.99471279 -6 327 C-4.90945313 325.98873047 -4.90945313 325.98873047 -3.796875 324.95703125 C2.05359066 319.38006297 6.86404408 312.99743695 11.76611328 306.59667969 C12.78241289 305.28156306 13.82351394 303.98565089 14.87109375 302.6953125 C23.47844683 292.08576937 30.78138586 280.14860062 37 268 C37.66 268 38.32 268 39 268 C39.10957031 267.37351562 39.21914063 266.74703125 39.33203125 266.1015625 C39.49058594 265.28429687 39.64914062 264.46703125 39.8125 263.625 C39.96332031 262.81289063 40.11414063 262.00078125 40.26953125 261.1640625 C41 259 41 259 44 257 C49.13659285 247.54866916 51.6353254 237.40456825 54 227 C54.57749965 224.66521599 55.16021434 222.33171077 55.75 220 C55.99234375 219.030625 56.2346875 218.06125 56.484375 217.0625 C56.65453125 216.381875 56.8246875 215.70125 57 215 C57.66 215 58.32 215 59 215 C59.03738281 214.30519531 59.07476562 213.61039063 59.11328125 212.89453125 C59.4429823 207.79386213 59.81938275 202.79076198 60.734375 197.76171875 C66.33060049 166.29834746 64.3749778 132.77798515 54.75097656 102.37353516 C54.0520162 100.16440231 53.37687542 97.94974073 52.7109375 95.73046875 C51.52430618 91.80340871 50.27488693 87.89919859 49 84 C48.77876465 83.31486328 48.5575293 82.62972656 48.32958984 81.92382812 C44.66594602 70.67729359 40.58397969 58.39573097 33.38671875 48.86328125 C31.77032633 46.69139622 30.98618939 44.51419825 30 42 C29.10392311 40.53632015 28.16490954 39.0981676 27.1875 37.6875 C24.68734083 34.03812341 22.3405434 30.33211292 20.078125 26.53125 C19.06461786 24.83486006 19.06461786 24.83486006 17 24 C16.04280616 22.28365243 15.08750537 20.56617528 14.1484375 18.83984375 C12.92018203 16.71824549 12.92018203 16.71824549 10.3125 14.3125 C7.95323516 11.95323516 7.66311361 11.09453019 7 8 C6.01 7.67 5.02 7.34 4 7 C0 2.54285714 0 2.54285714 0 0 Z " fill="#367D39" transform="translate(426,93)"/>
<path d="M0 0 C5.0970544 4.08126116 9.3186069 8.45536943 13.375 13.5625 C13.93735352 14.26503906 14.49970703 14.96757813 15.07910156 15.69140625 C23.40246329 26.1871131 30.50297475 37.15759779 36.87060547 48.93066406 C37.98637946 50.97504374 39.13256251 52.9996344 40.28515625 55.0234375 C48.57668387 69.80961114 55.55608888 85.96674344 57 103 C57.20645703 104.77105307 57.41460586 106.54191033 57.625 108.3125 C57.74875 109.529375 57.8725 110.74625 58 112 C56.46671638 109.1505529 55.49215715 106.45870853 54.703125 103.32421875 C54.46964355 102.4209082 54.23616211 101.51759766 53.99560547 100.58691406 C53.62653076 99.1517041 53.62653076 99.1517041 53.25 97.6875 C50.8010809 88.42861452 47.7710512 79.79551769 44 71 C43.35055726 69.29303556 42.70436802 67.58482716 42.0625 65.875 C40.01239712 60.72390117 37.36351278 55.92466009 34.68359375 51.078125 C33.56685542 49.03638532 32.49301721 46.97055404 31.46484375 44.8828125 C30.15788911 42.31072577 28.75717207 39.99826641 27.125 37.625 C24.6513869 33.99457282 22.32491585 30.30585863 20.078125 26.53125 C19.06461786 24.83486006 19.06461786 24.83486006 17 24 C16.04280616 22.28365243 15.08750537 20.56617528 14.1484375 18.83984375 C12.92018203 16.71824549 12.92018203 16.71824549 10.3125 14.3125 C7.95323516 11.95323516 7.66311361 11.09453019 7 8 C6.01 7.67 5.02 7.34 4 7 C0 2.54285714 0 2.54285714 0 0 Z " fill="#3A863D" transform="translate(426,93)"/>
<path d="M0 0 C-17.09563033 7.98452829 -35.49178142 11.8035323 -54 15 C-55.13791992 15.20133545 -55.13791992 15.20133545 -56.29882812 15.40673828 C-72.93829178 18.2102119 -90.1885669 17.18227575 -107 17 C-107 16.67 -107 16.34 -107 16 C-105.75802856 15.97812622 -105.75802856 15.97812622 -104.4909668 15.95581055 C-89.69510621 15.66717551 -74.97085906 15.24853939 -60.25 13.625 C-59.18869873 13.51115967 -58.12739746 13.39731934 -57.03393555 13.2800293 C-50.78241571 12.53741671 -44.79188547 11.32942635 -38.70703125 9.71508789 C-34.82901414 8.69067302 -30.91965525 7.84925864 -27 7 C-27 6.34 -27 5.68 -27 5 C-21.72 4.01 -16.44 3.02 -11 2 C-11 1.34 -11 0.68 -11 0 C-3.375 -1.125 -3.375 -1.125 0 0 Z " fill="#265828" transform="translate(345,474)"/>
<path d="M0 0 C5.34033146 0.55994086 9.3455477 2.43714889 14.0625 4.8125 C21.2590741 8.32603417 28.27897633 10.84876306 36 13 C38.68663664 13.87534527 41.360972 14.77590926 44.02734375 15.7109375 C59.3897082 21.0516368 74.96093615 23.63173942 91 26 C91 26.33 91 26.66 91 27 C58.59811879 26.47585192 28.77213743 14.82997618 0 1 C0 0.67 0 0.34 0 0 Z " fill="#285E2B" transform="translate(145,463)"/>
<path d="M0 0 C5.82692294 0.9948405 7.96927917 4.02533869 11.265625 8.546875 C11.83796875 9.35640625 12.4103125 10.1659375 13 11 C14.07868764 12.46177297 15.16171332 13.92035938 16.25 15.375 C16.70890625 16.00148438 17.1678125 16.62796875 17.640625 17.2734375 C20.38908112 20.76429269 23.18412304 22.74516362 27 25 C31.47262628 27.95439534 35.29397028 31.09891608 39 35 C39.886875 35.845625 40.77375 36.69125 41.6875 37.5625 C43.71171046 39.69612724 44.90335323 41.30823065 46 44 C34.88965013 38.88819583 26.15073907 29.44868579 17.625 20.9375 C17.15137024 20.46727417 16.67774048 19.99704834 16.1897583 19.51257324 C10.35239665 13.69921701 4.68399441 7.80473165 0 1 C0 0.67 0 0.34 0 0 Z " fill="#347937" transform="translate(71,401)"/>
<path d="M0 0 C1.39922764 2.79845527 0.57111299 4.74815223 -0.21582031 7.66455078 C-1.66308554 11.9748058 -3.75110015 15.92809723 -5.875 19.9375 C-6.30941406 20.79923828 -6.74382812 21.66097656 -7.19140625 22.54882812 C-7.62066406 23.36673828 -8.04992187 24.18464844 -8.4921875 25.02734375 C-8.87745605 25.76718506 -9.26272461 26.50702637 -9.65966797 27.26928711 C-11.31626555 29.40838005 -12.41896338 29.47188783 -15 30 C-16.0621504 32.28109689 -16.0621504 32.28109689 -17 35 C-30.81935135 55.39303856 -30.81935135 55.39303856 -39 61 C-37.41074271 57.25075767 -35.03205493 54.69161225 -32.3125 51.6875 C-27.01737505 45.63258095 -22.56974311 39.1114438 -18.1875 32.375 C-17.56593018 31.42197998 -16.94436035 30.46895996 -16.30395508 29.48706055 C-12.23046979 23.14586179 -8.51987261 16.66351373 -5 10 C-4.34 10 -3.68 10 -3 10 C-2.86722656 9.36191406 -2.73445313 8.72382813 -2.59765625 8.06640625 C-2.42105469 7.24011719 -2.24445313 6.41382813 -2.0625 5.5625 C-1.88847656 4.73878906 -1.71445312 3.91507812 -1.53515625 3.06640625 C-1 1 -1 1 0 0 Z " fill="#39843C" transform="translate(468,351)"/>
<path d="M0 0 C1.03979217 3.22894999 0.92909338 5.41970561 0.21484375 8.71875 C0.01689209 9.64147705 -0.18105957 10.5642041 -0.38500977 11.51489258 C-0.60858154 12.49997803 -0.83215332 13.48506348 -1.0625 14.5 C-1.28929443 15.51795654 -1.51608887 16.53591309 -1.74975586 17.5847168 C-5.69353051 34.83956785 -10.83195155 51.26646405 -19 67 C-20.16527907 63.54199653 -20.06300562 63.13328113 -18.375 59.5625 C-18.00117188 58.86253906 -17.62734375 58.16257812 -17.2421875 57.44140625 C-12.1600918 47.45301062 -9.53471431 36.83618039 -7 26 C-6.34186396 23.33111703 -5.6715649 20.66555053 -5 18 C-4.34 18 -3.68 18 -3 18 C-2.95101563 17.11957031 -2.90203125 16.23914063 -2.8515625 15.33203125 C-2.77679688 14.17058594 -2.70203125 13.00914062 -2.625 11.8125 C-2.55539062 10.66394531 -2.48578125 9.51539063 -2.4140625 8.33203125 C-2.02490426 5.20040883 -1.3190149 2.84714191 0 0 Z " fill="#2D682F" transform="translate(488,290)"/>
<path d="M0 0 C0.66 0 1.32 0 2 0 C0.41862832 4.86575901 -2.36821019 8.4883886 -5.4375 12.5 C-5.97463623 13.20632568 -6.51177246 13.91265137 -7.06518555 14.64038086 C-16.54175499 27.00796547 -26.83568516 38.13037774 -38 49 C-38 46 -38 46 -35.32421875 43.13671875 C-34.11657044 41.98215759 -32.90398334 40.83274853 -31.6875 39.6875 C-24.7206359 32.93832275 -18.82184951 25.73718111 -13 18 C-11.73170804 16.39382331 -10.46121607 14.78937872 -9.1875 13.1875 C-6.29762072 9.491789 -3.74436822 5.63138468 -1.26171875 1.65234375 C-0.63716797 0.83443359 -0.63716797 0.83443359 0 0 Z " fill="#2B642D" transform="translate(453,381)"/>
<path d="M0 0 C0.99 0.33 1.98 0.66 3 1 C-7.99145501 9.21716949 -19.97582193 15.67570616 -32.3125 21.625 C-33.03574463 21.98005615 -33.75898926 22.3351123 -34.50415039 22.70092773 C-39.64269405 25.11910198 -39.64269405 25.11910198 -43 24 C-41.27281901 23.1364095 -39.54562332 22.2728484 -37.81835938 21.40942383 C-36.3480471 20.67410403 -34.87799767 19.93825842 -33.40820312 19.2019043 C-30.27515704 17.63296165 -27.14081506 16.06876164 -23.9921875 14.53125 C-17.88880397 11.54652326 -12.16655867 8.23004377 -6.609375 4.31640625 C-5.41054688 3.47916016 -5.41054688 3.47916016 -4.1875 2.625 C-3.45917969 2.10164063 -2.73085938 1.57828125 -1.98046875 1.0390625 C-1.32691406 0.69617188 -0.67335938 0.35328125 0 0 Z " fill="#2A622C" transform="translate(388,448)"/>
<path d="M0 0 C-10.46024801 5.04333386 -22.22305354 10.05151308 -34 9 C-31.35261084 7.5393715 -30.10551666 7 -27 7 C-27 6.34 -27 5.68 -27 5 C-21.72 4.01 -16.44 3.02 -11 2 C-11 1.34 -11 0.68 -11 0 C-3.375 -1.125 -3.375 -1.125 0 0 Z " fill="#3B883E" transform="translate(345,474)"/>
<path d="M0 0 C0.66 0 1.32 0 2 0 C1.67 0.99 1.34 1.98 1 3 C30.7 3.495 30.7 3.495 61 4 C61 4.33 61 4.66 61 5 C39.55 5 18.1 5 -4 5 C-2.68 3.35 -1.36 1.7 0 0 Z " fill="#2C662F" transform="translate(120,348)"/>
<path d="M0 0 C3.78786597 0.5260925 6.17152224 1.38103911 9 4 C9 4.66 9 5.32 9 6 C9.7425 5.9175 10.485 5.835 11.25 5.75 C14.8565193 6.07786539 15.49148735 7.46422091 18 10 C20.60197323 11.64791638 23.26385322 13.13272737 25.953125 14.6328125 C26.62859375 15.08398438 27.3040625 15.53515625 28 16 C28 16.66 28 17.32 28 18 C23.18807202 16.62516343 19.26367805 14.4977268 15.125 11.75 C14.5151123 11.35103516 13.90522461 10.95207031 13.27685547 10.54101562 C3.74065401 4.25274261 3.74065401 4.25274261 0 1 C0 0.67 0 0.34 0 0 Z " fill="#317133" transform="translate(117,445)"/>
<path d="M0 0 C3.5763999 0.35763999 6.46748652 0.72755124 9.6875 2.375 C13.80822138 4.39648596 17.92276449 5.27031009 22.390625 6.25390625 C25 7 25 7 27 9 C20.04342354 9.51530196 15.29166686 7.86072718 9 5 C7.69482422 4.42765625 7.69482422 4.42765625 6.36328125 3.84375 C4.23606243 2.90870876 2.11569912 1.96075226 0 1 C0 0.67 0 0.34 0 0 Z " fill="#306E32" transform="translate(169,473)"/>
<path d="M0 0 C5.06403436 3.82615929 8.95540265 8.17453513 12.875 13.125 C13.36331299 13.7348877 13.85162598 14.34477539 14.35473633 14.97314453 C16.66905567 17.95003603 18.26252362 20.30659787 19 24 C18.34 24 17.68 24 17 24 C16.443125 22.948125 15.88625 21.89625 15.3125 20.8125 C13.80666242 18.14501628 12.5356132 16.5356132 10.3125 14.3125 C7.95323516 11.95323516 7.66311361 11.09453019 7 8 C6.01 7.67 5.02 7.34 4 7 C0 2.54285714 0 2.54285714 0 0 Z " fill="#409443" transform="translate(426,93)"/>
<path d="M0 0 C3.76154738 1.25384913 5.27191198 3.14200302 8 6 C8.886875 6.845625 9.77375 7.69125 10.6875 8.5625 C12.71171046 10.69612724 13.90335323 12.30823065 15 15 C11.15933963 13.43528652 8.86966685 10.93965873 6 8 C5.0925 7.319375 4.185 6.63875 3.25 5.9375 C0.89828652 3.91241339 0.32412372 3.02515469 0 0 Z " fill="#3F9343" transform="translate(102,430)"/>
<path d="M0 0 C-4.96284034 2.37113483 -9.45949887 4.43174347 -15 5 C-14.34 4.01 -13.68 3.02 -13 2 C-12.34 2 -11.68 2 -11 2 C-11 1.34 -11 0.68 -11 0 C-3.375 -1.125 -3.375 -1.125 0 0 Z " fill="#2C652E" transform="translate(345,474)"/>
<path d="M0 0 C3.35435922 1.38801071 5.11290303 2.88629 7 6 C7 6.99 7 7.98 7 9 C7.99 9.33 8.98 9.66 10 10 C9.67 11.32 9.34 12.64 9 14 C7.49717827 11.85609361 5.99764203 9.71001973 4.5 7.5625 C4.07074219 6.95083984 3.64148438 6.33917969 3.19921875 5.70898438 C0 1.11328125 0 1.11328125 0 0 Z " fill="#39833C" transform="translate(61,387)"/>
<path d="M0 0 C0.66 0 1.32 0 2 0 C1.67 0.99 1.34 1.98 1 3 C6.61 3.33 12.22 3.66 18 4 C18 4.33 18 4.66 18 5 C10.74 5 3.48 5 -4 5 C-2.68 3.35 -1.36 1.7 0 0 Z " fill="#346737" transform="translate(120,348)"/>
<path d="M0 0 C3.41021743 0.78697325 6.68885166 1.87119943 10 3 C10 3.66 10 4.32 10 5 C11.32 5.33 12.64 5.66 14 6 C14 6.66 14 7.32 14 8 C12.68 8 11.36 8 10 8 C10 7.34 10 6.68 10 6 C9.278125 5.7525 8.55625 5.505 7.8125 5.25 C4.75286734 3.89016326 2.5326262 2.17082246 0 0 Z " fill="#409544" transform="translate(135,455)"/>
<path d="M0 0 C5.50102837 0.41257713 9.76201664 2.54722675 14 6 C14 6.66 14 7.32 14 8 C8.76481294 6.56032356 4.36973991 4.18303389 0 1 C0 0.67 0 0.34 0 0 Z " fill="#2D682F" transform="translate(131,455)"/>
<path d="M0 0 C0.99 0 1.98 0 3 0 C3.86375896 1.61992165 4.71575854 3.24611861 5.5625 4.875 C6.03816406 5.77992188 6.51382813 6.68484375 7.00390625 7.6171875 C7.33261719 8.40351563 7.66132812 9.18984375 8 10 C7.67 10.66 7.34 11.32 7 12 C5.83061933 10.18924982 4.66456267 8.37635257 3.5 6.5625 C2.8503125 5.55316406 2.200625 4.54382813 1.53125 3.50390625 C0 1 0 1 0 0 Z " fill="#377E3A" transform="translate(53,375)"/>
<path d="M0 0 C4.35535069 1.16142685 6.64619703 2.07699505 9 6 C8.67 6.66 8.34 7.32 8 8 C3.96615872 5.92856799 2.07143201 4.03384128 0 0 Z " fill="#3A873D" transform="translate(71,401)"/>
<path d="M0 0 C3 0 3 0 5.5625 2.3125 C8 5 8 5 10 8 C6.40094092 7.44449305 5.00090201 6.25112752 2.75 3.4375 C2.22921875 2.79683594 1.7084375 2.15617187 1.171875 1.49609375 C0.78515625 1.00238281 0.3984375 0.50867188 0 0 Z " fill="#439A46" transform="translate(86,416)"/>
<path d="M0 0 C0.66 0 1.32 0 2 0 C1.71758359 1.46015291 1.42373386 2.91809793 1.125 4.375 C0.96257812 5.18710937 0.80015625 5.99921875 0.6328125 6.8359375 C0 9 0 9 -2 11 C-1.85892253 9.54119891 -1.71197585 8.08296449 -1.5625 6.625 C-1.48128906 5.81289063 -1.40007812 5.00078125 -1.31640625 4.1640625 C-1 2 -1 2 0 0 Z " fill="#3E8F41" transform="translate(476,329)"/>
<path d="M0 0 C-3.83704776 2.55803184 -7.75712791 4.34505724 -12.4375 3.625 C-12.953125 3.41875 -13.46875 3.2125 -14 3 C-9.03006806 0.56574762 -5.65394631 -0.34615998 0 0 Z " fill="#275B29" transform="translate(330,479)"/>
<path d="M0 0 C2.3125 0.1875 2.3125 0.1875 5 1 C6.8125 3.5625 6.8125 3.5625 8 6 C4.63408134 4.55746343 2.48952921 2.66735273 0 0 Z " fill="#327535" transform="translate(109,439)"/>
<path d="M0 0 C0.99 0.33 1.98 0.66 3 1 C0.36 2.98 -2.28 4.96 -5 7 C-3.38262276 3.76524552 -2.52370777 2.29427979 0 0 Z " fill="#285E2A" transform="translate(411,430)"/>
<path d="M0 0 C0.66 0 1.32 0 2 0 C3.6875 2.3125 3.6875 2.3125 5 5 C4.67 5.99 4.34 6.98 4 8 C1.84622436 5.37801226 0.59927826 3.35595828 0 0 Z " fill="#3A863D" transform="translate(49,367)"/>
</svg>
